<?xml version="1.0" standalone="no"?>
<!DOCTYPE svg PUBLIC "-//W3C//DTD SVG 20010904//EN"
 "http://www.w3.org/TR/2001/REC-SVG-20010904/DTD/svg10.dtd">
<svg version="1.0" xmlns="http://www.w3.org/2000/svg"
 width="268.000000pt" height="268.000000pt" viewBox="0 0 268.000000 268.000000"
 preserveAspectRatio="xMidYMid meet">
<metadata>
Created by potrace 1.11, written by Peter Selinger 2001-2013
</metadata>
<g transform="translate(0.000000,268.000000) scale(0.100000,-0.100000)"
fill="#000000" stroke="none">
<path d="M1060 2400 c0 -5 -22 -10 -50 -10 -27 0 -50 -4 -50 -10 0 -5 -18 -10
-40 -10 -22 0 -40 -4 -40 -10 0 -5 -13 -10 -30 -10 -16 0 -30 -4 -30 -10 0 -5
-13 -10 -30 -10 -16 0 -30 -4 -30 -10 0 -5 -9 -10 -20 -10 -11 0 -20 -4 -20
-10 0 -5 -9 -10 -20 -10 -11 0 -20 -4 -20 -10 0 -5 -9 -10 -20 -10 -11 0 -20
-4 -20 -10 0 -5 -8 -10 -18 -10 -10 0 -24 -9 -32 -20 -8 -11 -21 -20 -30 -20
-9 0 -22 -9 -30 -20 -8 -11 -20 -20 -27 -20 -17 0 -263 -246 -263 -263 0 -7
-9 -19 -20 -27 -11 -8 -20 -22 -20 -32 0 -10 -4 -18 -10 -18 -5 0 -10 -8 -10
-18 0 -10 -9 -24 -20 -32 -12 -8 -20 -26 -20 -42 0 -15 -4 -28 -10 -28 -5 0
-10 -9 -10 -20 0 -11 -4 -20 -10 -20 -5 0 -10 -13 -10 -30 0 -16 -4 -30 -10
-30 -5 0 -10 -18 -10 -40 0 -22 -4 -40 -10 -40 -6 0 -10 -73 -10 -200 0 -127
4 -200 10 -200 6 0 10 -18 10 -40 0 -22 5 -40 10 -40 6 0 10 -13 10 -30 0 -16
5 -30 10 -30 6 0 10 -13 10 -30 0 -16 5 -30 10 -30 6 0 10 -9 10 -20 0 -11 5
-20 10 -20 6 0 10 -8 10 -18 0 -10 9 -24 20 -32 11 -8 20 -21 20 -30 0 -9 9
-22 20 -30 11 -8 20 -21 20 -28 0 -7 18 -31 40 -52 22 -21 40 -43 40 -50 0
-14 46 -60 60 -60 6 0 33 -22 60 -50 27 -27 55 -50 62 -50 8 0 20 -9 28 -20 8
-11 21 -20 30 -20 9 0 22 -9 30 -20 8 -11 22 -20 32 -20 10 0 18 -4 18 -10 0
-5 9 -10 20 -10 11 0 20 -4 20 -10 0 -5 9 -10 20 -10 11 0 20 -4 20 -10 0 -5
9 -10 20 -10 11 0 20 -4 20 -10 0 -5 14 -10 30 -10 17 0 30 -4 30 -10 0 -5 9
-10 20 -10 11 0 20 -4 20 -10 0 -5 18 -10 40 -10 22 0 40 -4 40 -10 0 -5 23
-10 50 -10 28 0 50 -4 50 -10 0 -6 93 -10 260 -10 167 0 260 4 260 10 0 6 23
10 50 10 28 0 50 5 50 10 0 6 18 10 40 10 22 0 40 5 40 10 0 6 9 10 20 10 11
0 20 5 20 10 0 6 14 10 30 10 17 0 30 5 30 10 0 6 9 10 20 10 11 0 20 5 20 10
0 6 9 10 20 10 11 0 20 5 20 10 0 6 9 10 20 10 11 0 20 5 20 10 0 6 8 10 18
10 10 0 24 9 32 20 8 11 21 20 30 20 9 0 22 9 30 20 8 11 20 20 28 20 7 0 35
23 62 50 27 28 54 50 60 50 14 0 60 46 60 60 0 7 18 29 40 50 22 21 40 45 40
52 0 7 9 20 20 28 11 8 20 21 20 30 0 9 9 22 20 30 11 8 20 22 20 32 0 10 5
18 10 18 6 0 10 9 10 20 0 11 5 20 10 20 6 0 10 14 10 30 0 17 5 30 10 30 6 0
10 14 10 30 0 17 5 30 10 30 6 0 10 18 10 40 0 22 5 40 10 40 6 0 10 73 10
200 0 127 -4 200 -10 200 -5 0 -10 18 -10 40 0 22 -4 40 -10 40 -5 0 -10 14
-10 30 0 17 -4 30 -10 30 -5 0 -10 9 -10 20 0 11 -4 20 -10 20 -5 0 -10 13
-10 28 0 16 -8 34 -20 42 -11 8 -20 22 -20 32 0 10 -4 18 -10 18 -5 0 -10 8
-10 18 0 10 -9 24 -20 32 -11 8 -20 20 -20 27 0 17 -246 263 -263 263 -7 0
-19 9 -27 20 -8 11 -21 20 -30 20 -9 0 -22 9 -30 20 -8 11 -22 20 -32 20 -10
0 -18 5 -18 10 0 6 -9 10 -20 10 -11 0 -20 5 -20 10 0 6 -9 10 -20 10 -11 0
-20 5 -20 10 0 6 -9 10 -20 10 -11 0 -20 5 -20 10 0 6 -13 10 -30 10 -16 0
-30 5 -30 10 0 6 -13 10 -30 10 -16 0 -30 5 -30 10 0 6 -18 10 -40 10 -22 0
-40 5 -40 10 0 6 -22 10 -50 10 -27 0 -50 5 -50 10 0 6 -87 10 -240 10 -153 0
-240 -4 -240 -10z m340 -380 c0 -5 14 -10 30 -10 17 0 30 -4 30 -10 0 -5 14
-10 30 -10 17 0 30 -4 30 -10 0 -5 7 -10 15 -10 20 0 105 -85 105 -105 0 -8 5
-15 10 -15 6 0 10 -9 10 -20 0 -11 5 -20 10 -20 6 0 10 -9 10 -20 0 -11 5 -20
10 -20 6 0 10 -22 10 -50 l0 -50 -50 0 c-27 0 -50 -4 -50 -10 0 -5 -13 -10
-30 -10 -23 0 -30 4 -30 20 0 11 -4 20 -10 20 -5 0 -10 14 -10 30 0 17 -4 30
-10 30 -5 0 -10 7 -10 15 0 26 -66 85 -95 85 -14 0 -25 5 -25 10 0 6 -47 10
-120 10 -73 0 -120 -4 -120 -10 0 -5 -9 -10 -20 -10 -11 0 -20 -4 -20 -10 0
-5 -7 -10 -16 -10 -20 0 -44 -24 -44 -44 0 -9 -4 -16 -10 -16 -5 0 -10 -25
-10 -55 0 -46 4 -60 25 -80 13 -14 31 -25 40 -25 8 0 15 -4 15 -10 0 -5 9 -10
20 -10 11 0 20 -4 20 -10 0 -5 18 -10 40 -10 22 0 40 -4 40 -10 0 -5 18 -10
40 -10 22 0 40 -4 40 -10 0 -5 18 -10 40 -10 22 0 40 -4 40 -10 0 -5 14 -10
30 -10 17 0 30 -4 30 -10 0 -5 18 -10 40 -10 22 0 40 -4 40 -10 0 -5 9 -10 20
-10 11 0 20 -4 20 -10 0 -5 7 -10 15 -10 9 0 40 -25 70 -55 30 -30 55 -61 55
-70 0 -8 5 -15 10 -15 6 0 10 -13 10 -30 0 -16 5 -30 10 -30 6 0 10 -30 10
-70 0 -40 -4 -70 -10 -70 -5 0 -10 -13 -10 -30 0 -16 -4 -30 -10 -30 -5 0 -10
-8 -10 -18 0 -10 -9 -24 -20 -32 -11 -8 -20 -20 -20 -28 0 -17 -24 -42 -40
-42 -7 0 -25 -13 -40 -30 -17 -18 -38 -30 -54 -30 -14 0 -26 -4 -26 -10 0 -5
-13 -10 -30 -10 -16 0 -30 -4 -30 -10 0 -6 -57 -10 -150 -10 -93 0 -150 4
-150 10 0 6 -18 10 -40 10 -22 0 -40 5 -40 10 0 6 -9 10 -20 10 -11 0 -20 5
-20 10 0 6 -9 10 -20 10 -11 0 -20 5 -20 10 0 6 -7 10 -15 10 -19 0 -85 64
-85 82 0 8 -9 20 -20 28 -11 8 -20 22 -20 32 0 10 -4 18 -10 18 -5 0 -10 14
-10 30 0 17 -4 30 -10 30 -5 0 -10 23 -10 50 0 49 1 50 30 50 17 0 30 5 30 10
0 6 23 10 50 10 43 0 50 -3 50 -20 0 -11 5 -20 10 -20 6 0 10 -13 10 -30 0
-16 5 -30 10 -30 6 0 10 -7 10 -15 0 -20 85 -105 105 -105 8 0 15 -4 15 -10 0
-5 14 -10 30 -10 17 0 30 -4 30 -10 0 -6 47 -10 120 -10 73 0 120 4 120 10 0
6 9 10 20 10 11 0 20 5 20 10 0 6 7 10 15 10 9 0 31 16 50 35 33 32 35 38 35
100 0 37 -4 65 -10 65 -5 0 -10 9 -10 20 0 13 -7 20 -18 20 -10 0 -24 9 -32
20 -8 11 -22 20 -32 20 -10 0 -18 5 -18 10 0 6 -18 10 -40 10 -22 0 -40 5 -40
10 0 6 -13 10 -30 10 -16 0 -30 5 -30 10 0 6 -22 10 -50 10 -27 0 -50 5 -50
10 0 6 -13 10 -30 10 -16 0 -30 5 -30 10 0 6 -13 10 -30 10 -16 0 -30 5 -30
10 0 6 -13 10 -30 10 -16 0 -30 5 -30 10 0 6 -7 10 -15 10 -20 0 -125 105
-125 125 0 8 -4 15 -10 15 -5 0 -10 14 -10 30 0 17 -4 30 -10 30 -6 0 -10 27
-10 60 0 33 4 60 10 60 6 0 10 14 10 30 0 17 5 30 10 30 6 0 10 7 10 15 0 9
25 40 55 70 30 30 61 55 70 55 8 0 15 5 15 10 0 6 9 10 20 10 11 0 20 5 20 10
0 6 18 10 40 10 22 0 40 5 40 10 0 6 50 10 130 10 80 0 130 -4 130 -10z"/>
</g>
</svg>
