<?xml version="1.0" standalone="no"?>
<!DOCTYPE svg PUBLIC "-//W3C//DTD SVG 20010904//EN"
 "http://www.w3.org/TR/2001/REC-SVG-20010904/DTD/svg10.dtd">
<svg version="1.0" xmlns="http://www.w3.org/2000/svg"
 width="250.000000pt" height="250.000000pt" viewBox="0 0 250.000000 250.000000"
 preserveAspectRatio="xMidYMid meet">
<metadata>
Created by potrace 1.11, written by Peter Selinger 2001-2013
</metadata>
<g transform="translate(0.000000,250.000000) scale(0.100000,-0.100000)"
fill="#000000" stroke="none">
<path d="M1139 1960 c-167 -26 -327 -137 -387 -268 -50 -111 -40 -312 22 -410
62 -99 207 -167 418 -197 179 -26 240 -68 209 -144 -47 -113 -362 -96 -494 27
-16 16 -31 22 -36 16 -5 -5 -54 -60 -110 -123 -114 -130 -113 -117 -15 -187
80 -57 176 -100 267 -120 99 -22 293 -22 376 0 130 34 253 113 306 196 91 144
64 423 -52 532 -47 45 -174 105 -259 122 -228 47 -287 67 -312 107 -20 31 2
75 47 99 81 41 232 34 297 -15 19 -14 49 -36 68 -50 l33 -25 107 124 c58 68
106 127 106 130 0 4 -15 20 -32 36 -55 51 -159 108 -235 129 -84 23 -245 33
-324 21z"/>
</g>
</svg>
